HIERARCHY
ROOT Hip
{
	OFFSET	0.0000	0.0000	0.0000
	CHANNELS 6 Xposition Yposition Zposition Xrotation Yrotation Zrotation
	JOINT LowerSpine
	{
		OFFSET	0.0000	10.0322	-5.4289
		CHANNELS 3 Xrotation Yrotation Zrotation
		JOINT MiddleSpine
		{
			OFFSET	0.0000	9.1552	0.4782
			CHANNELS 3 Xrotation Yrotation Zrotation
			JOINT Chest
			{
				OFFSET	0.0000	11.3285	-2.5216
				CHANNELS 3 Xrotation Yrotation Zrotation
				JOINT Neck
				{
					OFFSET	0.0000	25.5283	-0.5309
					CHANNELS 3 Xrotation Yrotation Zrotation
					JOINT Head
					{
						OFFSET	0.0000	14.4161	3.9212
						CHANNELS 3 Xrotation Yrotation Zrotation
						End Site
						{
							OFFSET	0.0001	20.1431	0.6013
						}
					}
				}
				JOINT LClavicle
				{
					OFFSET	2.5773	24.6361	8.4405
					CHANNELS 3 Xrotation Yrotation Zrotation
					JOINT LShoulder
					{
						OFFSET	15.0569	3.5337	-5.7178
						CHANNELS 3 Xrotation Yrotation Zrotation
						JOINT LForearm
						{
							OFFSET	31.9839	-0.1136	-0.2771
							CHANNELS 3 Xrotation Yrotation Zrotation
							JOINT LHand
							{
								OFFSET	26.6813	0.0774	-0.1598
								CHANNELS 3 Xrotation Yrotation Zrotation
								JOINT LFinger1
								{
									OFFSET	10.3409	0.9043	2.8721
									CHANNELS 3 Xrotation Yrotation Zrotation
									JOINT LFinger11
									{
										OFFSET	3.8680	-0.9432	0.6816
										CHANNELS 3 Xrotation Yrotation Zrotation
										JOINT LFinger12
										{
											OFFSET	2.6406	-0.6442	0.4655
											CHANNELS 3 Xrotation Yrotation Zrotation
											End Site
											{
												OFFSET	1.8790	-0.5609	0.3048
											}
										}
									}
								}
								JOINT LFinger2
								{
									OFFSET	10.4952	1.0444	0.2501
									CHANNELS 3 Xrotation Yrotation Zrotation
									JOINT LFinger21
									{
										OFFSET	4.7826	0.0133	-0.0282
										CHANNELS 3 Xrotation Yrotation Zrotation
										JOINT LFinger22
										{
											OFFSET	2.6509	0.0081	-0.0161
											CHANNELS 3 Xrotation Yrotation Zrotation
											End Site
											{
												OFFSET	2.3811	-0.1681	0.0032
											}
										}
									}
								}
								JOINT LFinger3
								{
									OFFSET	9.9464	0.6969	-2.3531
									CHANNELS 3 Xrotation Yrotation Zrotation
									JOINT LFinger31
									{
										OFFSET	4.3397	-0.2197	-0.2717
										CHANNELS 3 Xrotation Yrotation Zrotation
										JOINT LFinger32
										{
											OFFSET	2.4729	-0.1244	-0.1554
											CHANNELS 3 Xrotation Yrotation Zrotation
											End Site
											{
												OFFSET	2.1865	-0.2688	-0.1034
											}
										}
									}
								}
								JOINT LFinger4
								{
									OFFSET	9.2298	-0.7015	-4.0639
									CHANNELS 3 Xrotation Yrotation Zrotation
									JOINT LFinger41
									{
										OFFSET	2.6693	-0.5567	-0.7368
										CHANNELS 3 Xrotation Yrotation Zrotation
										JOINT LFinger42
										{
											OFFSET	1.9574	-0.4077	-0.5407
											CHANNELS 3 Xrotation Yrotation Zrotation
											End Site
											{
												OFFSET	1.7374	-0.4774	-0.3986
											}
										}
									}
								}
								JOINT LFinger0
								{
									OFFSET	2.1391	-1.6191	1.6216
									CHANNELS 3 Xrotation Yrotation Zrotation
									JOINT LFinger01
									{
										OFFSET	3.9827	-1.3081	3.0028
										CHANNELS 3 Xrotation Yrotation Zrotation
										JOINT LFinger02
										{
											OFFSET	2.6226	-0.9384	1.8895
											CHANNELS 3 Xrotation Yrotation Zrotation
											End Site
											{
												OFFSET	1.9286	-0.6639	1.3206
											}
										}
									}
								}
							}
						}
					}
				}
				JOINT RClavicle
				{
					OFFSET	-2.5773	24.6361	8.4405
					CHANNELS 3 Xrotation Yrotation Zrotation
					JOINT RShoulder
					{
						OFFSET	-15.0596	3.5343	-5.7188
						CHANNELS 3 Xrotation Yrotation Zrotation
						JOINT RForearm
						{
							OFFSET	-31.9839	-0.1136	-0.2771
							CHANNELS 3 Xrotation Yrotation Zrotation
							JOINT RHand
							{
								OFFSET	-26.6813	0.0774	-0.1598
								CHANNELS 3 Xrotation Yrotation Zrotation
								JOINT RFinger1
								{
									OFFSET	-10.3409	0.9043	2.8721
									CHANNELS 3 Xrotation Yrotation Zrotation
									JOINT RFinger11
									{
										OFFSET	-3.8680	-0.9432	0.6816
										CHANNELS 3 Xrotation Yrotation Zrotation
										JOINT RFinger12
										{
											OFFSET	-2.6406	-0.6442	0.4655
											CHANNELS 3 Xrotation Yrotation Zrotation
											End Site
											{
												OFFSET	-1.8790	-0.5609	0.3048
											}
										}
									}
								}
								JOINT RFinger2
								{
									OFFSET	-10.4952	1.0444	0.2501
									CHANNELS 3 Xrotation Yrotation Zrotation
									JOINT RFinger21
									{
										OFFSET	-4.7826	0.0133	-0.0282
										CHANNELS 3 Xrotation Yrotation Zrotation
										JOINT RFinger22
										{
											OFFSET	-2.6509	0.0081	-0.0161
											CHANNELS 3 Xrotation Yrotation Zrotation
											End Site
											{
												OFFSET	-2.3811	-0.1681	0.0032
											}
										}
									}
								}
								JOINT RFinger3
								{
									OFFSET	-9.9464	0.6969	-2.3531
									CHANNELS 3 Xrotation Yrotation Zrotation
									JOINT RFinger31
									{
										OFFSET	-4.3397	-0.2197	-0.2717
										CHANNELS 3 Xrotation Yrotation Zrotation
										JOINT RFinger32
										{
											OFFSET	-2.4729	-0.1244	-0.1554
											CHANNELS 3 Xrotation Yrotation Zrotation
											End Site
											{
												OFFSET	-2.1865	-0.2688	-0.1034
											}
										}
									}
								}
								JOINT RFinger4
								{
									OFFSET	-9.2298	-0.7015	-4.0639
									CHANNELS 3 Xrotation Yrotation Zrotation
									JOINT RFinger41
									{
										OFFSET	-2.6693	-0.5567	-0.7368
										CHANNELS 3 Xrotation Yrotation Zrotation
										JOINT RFinger42
										{
											OFFSET	-1.9574	-0.4077	-0.5407
											CHANNELS 3 Xrotation Yrotation Zrotation
											End Site
											{
												OFFSET	-1.7374	-0.4774	-0.3986
											}
										}
									}
								}
								JOINT RFinger0
								{
									OFFSET	-2.1391	-1.6191	1.6216
									CHANNELS 3 Xrotation Yrotation Zrotation
									JOINT RFinger01
									{
										OFFSET	-3.9827	-1.3081	3.0028
										CHANNELS 3 Xrotation Yrotation Zrotation
										JOINT RFinger02
										{
											OFFSET	-2.6226	-0.9384	1.8895
											CHANNELS 3 Xrotation Yrotation Zrotation
											End Site
											{
												OFFSET	-1.9286	-0.6639	1.3206
											}
										}
									}
								}
							}
						}
					}
				}
			}
		}
	}
	JOINT RThigh
	{
		OFFSET	-10.7320	4.5349	-0.8846
		CHANNELS 3 Xrotation Yrotation Zrotation
		JOINT RShin
		{
			OFFSET	-0.8587	-46.6794	0.0000
			CHANNELS 3 Xrotation Yrotation Zrotation
			JOINT RFoot
			{
				OFFSET	0.0000	-45.8363	0.0000
				CHANNELS 3 Xrotation Yrotation Zrotation
				JOINT RToe
				{
					OFFSET	0.0000	-5.0378	10.5347
					CHANNELS 3 Xrotation Yrotation Zrotation
					End Site
					{
						OFFSET	0.0000	0.0000	7.0673
					}
				}
			}
		}
	}
	JOINT LThigh
	{
		OFFSET	10.7319	4.5352	-0.8846
		CHANNELS 3 Xrotation Yrotation Zrotation
		JOINT LShin
		{
			OFFSET	0.8588	-46.6797	0.0000
			CHANNELS 3 Xrotation Yrotation Zrotation
			JOINT LFoot
			{
				OFFSET	0.0000	-45.8363	0.0000
				CHANNELS 3 Xrotation Yrotation Zrotation
				JOINT LToe
				{
					OFFSET	0.0000	-5.0378	10.5348
					CHANNELS 3 Xrotation Yrotation Zrotation
					End Site
					{
						OFFSET	0.0000	0.0000	7.0673
					}
				}
			}
		}
	}
}
MOTION
Frames:	4
Frame Time: 0.0333333000
	-2.5057	96.9502	7.8690	-7.739166	6.379663	-1.971995	0.000000	0.000000	0.000000	3.727331	-0.802361	-0.098804	12.440830	-2.670709	-0.113822	0.000000	0.000000	0.000000	0.000000	0.000000	0.000000	0.000000	0.000000	-14.560720	11.548200	-20.776540	-56.034790	-3.014897	-30.629310	-0.013118	0.000000	0.000000	0.000000	0.000000	0.000000	0.000000	0.000000	0.000000	0.000000	0.000000	0.000000	0.000000	0.000000	0.000000	0.000000	0.000000	0.000000	0.000000	0.000000	0.000000	0.000000	0.000000	0.000000	0.000000	0.000000	0.000000	0.000000	0.000000	0.000000	0.000000	0.000000	0.000000	0.000000	0.000000	0.000000	0.000000	0.000000	0.000000	0.000000	0.000000	0.000000	0.000000	0.000000	0.000000	0.000000	0.000000	0.000000	0.000000	0.000000	0.000000	2.286039	-43.910050	15.961200	32.064370	-44.394230	53.740440	-0.184631	0.000000	0.000000	0.000000	0.000000	0.000000	0.000000	0.000000	0.000000	0.000000	0.000000	0.000000	0.000000	0.000000	0.000000	0.000000	0.000000	0.000000	0.000000	0.000000	0.000000	0.000000	0.000000	0.000000	0.000000	0.000000	0.000000	0.000000	0.000000	0.000000	0.000000	0.000000	0.000000	0.000000	0.000000	0.000000	0.000000	0.000000	0.000000	0.000000	0.000000	0.000000	0.000000	0.000000	0.000000	0.000000	0.000000	0.000000	0.000000	13.582630	0.686838	8.103968	4.945197	-1.066472	-1.573627	-1.074686	1.588266	0.777958	0.000000	0.000000	0.000000	11.181550	0.985559	7.934525	3.034681	-1.846156	-2.184127	-0.510369	2.645685	1.279878	-0.000001	0.000000	0.000000
	-2.4104	96.9780	7.8861	-7.797696	6.493489	-2.009756	0.000000	0.000000	0.000000	3.736415	-0.792381	-0.090819	12.457580	-2.647622	-0.098586	0.000000	0.000000	0.000000	0.000000	0.000000	0.000000	0.000000	0.000000	-14.574530	11.497770	-20.818370	-56.090310	-3.053820	-30.528650	-0.012498	0.000000	0.000000	0.000000	0.000000	0.000000	0.000000	0.000000	0.000000	0.000000	0.000000	0.000000	0.000000	0.000000	0.000000	0.000000	0.000000	0.000000	0.000000	0.000000	0.000000	0.000000	0.000000	0.000000	0.000000	0.000000	0.000000	0.000000	0.000000	0.000000	0.000000	0.000000	0.000000	0.000000	0.000000	0.000000	0.000000	0.000000	0.000000	0.000000	0.000000	0.000000	0.000000	0.000000	0.000000	0.000000	0.000000	0.000000	0.000000	0.000000	0.000000	2.230901	-43.660340	16.479940	31.909330	-43.912170	53.992740	-0.177469	0.000000	0.000000	0.000000	0.000000	0.000000	0.000000	0.000000	0.000000	0.000000	0.000000	0.000000	0.000000	0.000000	0.000000	0.000000	0.000000	0.000000	0.000000	0.000000	0.000000	0.000000	0.000000	0.000000	0.000000	0.000000	0.000000	0.000000	0.000000	0.000000	0.000000	0.000000	0.000000	0.000000	0.000000	0.000000	0.000000	0.000000	0.000000	0.000000	0.000000	0.000000	0.000000	0.000000	0.000000	0.000000	0.000000	0.000000	0.000000	13.660590	0.690089	8.125026	4.947302	-1.019591	-1.567625	-1.053563	1.637099	0.801481	0.000000	0.000000	0.000000	11.257520	0.995743	7.969443	2.976167	-1.824055	-2.225969	-0.450837	2.760453	1.333643	-0.000001	0.000000	0.000000
	-2.3094	97.0072	7.9032	-7.856025	6.628359	-2.054118	0.000000	0.000000	0.000000	3.744654	-0.777166	-0.080081	12.476710	-2.611778	-0.076774	0.000000	0.000000	0.000000	0.000000	0.000000	0.000000	0.000000	0.000000	-14.581710	11.433060	-20.902170	-56.147870	-3.084793	-30.396890	-0.011998	0.000000	0.000000	0.000000	0.000000	0.000000	0.000000	0.000000	0.000000	0.000000	0.000000	0.000000	0.000000	0.000000	0.000000	0.000000	0.000000	0.000000	0.000000	0.000000	0.000000	0.000000	0.000000	0.000000	0.000000	0.000000	0.000000	0.000000	0.000000	0.000000	0.000000	0.000000	0.000000	0.000000	0.000000	0.000000	0.000000	0.000000	0.000000	0.000000	0.000000	0.000000	0.000000	0.000000	0.000000	0.000000	0.000000	0.000000	0.000000	0.000000	0.000000	2.165593	-43.577320	17.512890	31.870540	-43.304090	54.242160	-0.177956	0.000000	0.000000	0.000000	0.000000	0.000000	0.000000	0.000000	0.000000	0.000000	0.000000	0.000000	0.000000	0.000000	0.000000	0.000000	0.000000	0.000000	0.000000	0.000000	0.000000	0.000000	0.000000	0.000000	0.000000	0.000000	0.000000	0.000000	0.000000	0.000000	0.000000	0.000000	0.000000	0.000000	0.000000	0.000000	0.000000	0.000000	0.000000	0.000000	0.000000	0.000000	0.000000	0.000000	0.000000	0.000000	0.000000	0.000000	0.000000	13.740180	0.693882	8.150469	4.950157	-0.969373	-1.554696	-1.034943	1.674790	0.819606	0.000000	0.000000	0.000000	11.325340	1.004281	7.994367	2.930459	-1.798928	-2.229022	-0.405762	2.859100	1.379933	-0.000001	0.000000	0.000000
	-2.2034	97.0364	7.9137	-7.894753	6.807574	-2.090415	0.000000	0.000000	0.000000	3.748012	-0.767099	-0.073440	12.494830	-2.565672	-0.050221	0.000000	0.000000	0.000000	0.000000	0.000000	0.000000	0.000000	0.000000	-14.588620	11.319620	-21.094920	-56.197490	-3.099133	-30.172260	-0.011437	0.000000	0.000000	0.000000	0.000000	0.000000	0.000000	0.000000	0.000000	0.000000	0.000000	0.000000	0.000000	0.000000	0.000000	0.000000	0.000000	0.000000	0.000000	0.000000	0.000000	0.000000	0.000000	0.000000	0.000000	0.000000	0.000000	0.000000	0.000000	0.000000	0.000000	0.000000	0.000000	0.000000	0.000000	0.000000	0.000000	0.000000	0.000000	0.000000	0.000000	0.000000	0.000000	0.000000	0.000000	0.000000	0.000000	0.000000	0.000000	0.000000	0.000000	2.090569	-43.729450	18.942690	31.943640	-42.684550	54.145700	-0.181934	0.000000	0.000000	0.000000	0.000000	0.000000	0.000000	0.000000	0.000000	0.000000	0.000000	0.000000	0.000000	0.000000	0.000000	0.000000	0.000000	0.000000	0.000000	0.000000	0.000000	0.000000	0.000000	0.000000	0.000000	0.000000	0.000000	0.000000	0.000000	0.000000	0.000000	0.000000	0.000000	0.000000	0.000000	0.000000	0.000000	0.000000	0.000000	0.000000	0.000000	0.000000	0.000000	0.000000	0.000000	0.000000	0.000000	0.000000	0.000000	13.799240	0.696060	8.172186	4.953394	-0.916248	-1.537953	-1.032143	1.690733	0.827371	0.000000	0.000000	0.000000	11.335530	1.002448	7.966656	2.943049	-1.770196	-2.126732	-0.361733	2.876166	1.386805	-0.000001	0.000000	0.000000
